<svg width="30" height="30" viewBox="0 0 30 30" fill="none" xmlns="http://www.w3.org/2000/svg">
<path fill-rule="evenodd" clip-rule="evenodd" d="M15 30C23.2843 30 30 23.2843 30 15C30 6.71573 23.2843 0 15 0C6.7157 0 0 6.71573 0 15C0 23.2843 6.7157 30 15 30ZM14.7246 19.7456C14.1998 21.6272 13.6622 22.856 13.1246 23.4192C12.7534 23.816 12.5103 23.9056 12.267 23.7264C12.0366 23.56 11.8318 23.0864 11.8318 22.7024C11.8318 22.28 12.1006 21.5248 12.4207 21.0384C12.8687 20.36 13.9438 19.4256 14.7374 19.016L14.9678 18.9008L14.7246 19.7456ZM11.0382 22.536C10.8718 23.624 11.2559 24.5456 12.0494 24.9424C13.035 25.4416 14.1998 24.9296 15.1599 23.5984C15.851 22.6384 16.619 20.7568 17.1183 18.8368C17.2334 18.3888 17.3743 17.992 17.4254 17.9664C17.5663 17.8896 19.1406 17.5824 20.459 17.3648C21.6238 17.1728 21.8158 17.1088 21.6622 16.9552C21.547 16.84 19.947 16.968 18.5262 17.2112L18.3661 17.2373C17.8892 17.3151 17.5138 17.3763 17.5022 17.3648C17.4894 17.352 17.5535 16.904 17.6559 16.3792C18.3214 12.7696 18.347 9.4416 17.7327 7.3168C17.5022 6.52319 17.2719 6.06239 16.8751 5.64C16.4398 5.1664 16.0302 5 15.4158 5C14.9934 5 14.8527 5.03841 14.4302 5.256C13.5086 5.7168 12.5742 6.8688 12.0494 8.17439C10.8206 11.272 11.4222 14.7536 13.4575 16.2896C13.8798 16.6096 14.5327 16.8784 14.7246 16.8016C14.9678 16.712 14.827 16.5328 14.315 16.2896C13.611 15.944 13.0734 15.3936 12.651 14.5104C12.2798 13.7296 12.139 13.192 12.0494 12.2704C11.8574 10.2736 12.523 8.08479 13.7006 6.8304C14.1486 6.34399 14.8398 5.9344 15.1854 5.9344C15.5054 5.9344 15.8383 6.1904 16.0175 6.60001C16.299 7.2272 16.3759 7.7776 16.3759 9.4032C16.3759 11.4256 16.1326 13.4352 15.531 16.3792C15.2595 17.7005 15.2056 18.03 15.0118 18.2002C14.9315 18.2707 14.8271 18.3138 14.6734 18.3888C12.6895 19.3616 11.2814 20.9872 11.0382 22.536Z" fill="#2A2A2A"/>
</svg>
